<svg width="121" height="190" viewBox="0 0 121 190" fill="none" xmlns="http://www.w3.org/2000/svg">
<rect width="25" height="25" fill="#550393"/>
<rect y="33" width="25" height="25" fill="#550393"/>
<rect y="66" width="25" height="25" fill="#550393"/>
<rect y="99" width="25" height="25" fill="#550393"/>
<rect y="132" width="25" height="25" fill="#550393"/>
<rect y="165" width="25" height="25" fill="#550393"/>
<rect x="35" width="25" height="25" fill="#550393"/>
<rect x="35" y="33" width="25" height="25" fill="#550393"/>
<rect x="35" y="66" width="25" height="25" fill="#550393"/>
<rect x="35" y="99" width="25" height="25" fill="#550393"/>
<rect x="35" y="132" width="25" height="25" fill="#550393"/>
<rect x="35" y="165" width="25" height="25" fill="#550393"/>
<rect x="70" width="25" height="25" fill="#550393"/>
<rect x="70" y="33" width="25" height="25" fill="#550393"/>
<rect x="70" y="66" width="25" height="25" fill="#550393"/>
<rect x="70" y="99" width="25" height="25" fill="#550393"/>
<rect x="70" y="132" width="25" height="25" fill="#550393"/>
<rect x="70" y="165" width="25" height="25" fill="#550393"/>
<rect x="105" width="25" height="25" fill="#550393"/>
<rect x="105" y="33" width="25" height="25" fill="#550393"/>
<rect x="105" y="66" width="25" height="25" fill="#550393"/>
<rect x="105" y="99" width="25" height="25" fill="#550393"/>
<rect x="105" y="132" width="25" height="25" fill="#550393"/>
<rect x="105" y="165" width="25" height="25" fill="#550393"/>
</svg>
