<svg width="27" height="27" viewBox="0 0 29 29" fill="none" xmlns="http://www.w3.org/2000/svg">
<path fill-rule="evenodd" clip-rule="evenodd" d="M14.5 14.5C11.2861 14.5 8.67239 11.8987 8.67239 8.69998C8.67239 5.50128 11.2861 2.89998 14.5 2.89998C17.7139 2.89998 20.3276 5.50128 20.3276 8.69998C20.3276 11.8987 17.7139 14.5 14.5 14.5ZM19.9751 15.4758C22.2872 13.6241 23.6348 10.6299 23.1395 7.3514C22.564 3.54805 19.385 0.504566 15.5475 0.0608664C10.2517 -0.552484 5.75859 3.55103 5.75859 8.69998C5.75859 11.4405 7.03483 13.8822 9.02496 15.4758C4.13559 17.3042 0.566172 21.5977 0.00671939 27.3919C-0.0748663 28.2489 0.596773 29 1.46217 29C2.20374 29 2.83604 28.4432 2.9016 27.708C3.48582 21.2367 8.46405 17.4 14.5 17.4C20.536 17.4 25.5142 21.2367 26.0984 27.708C26.164 28.4432 26.7963 29 27.5378 29C28.4032 29 29.0749 28.2489 28.9933 27.3919C28.4338 21.5977 24.8644 17.3042 19.9751 15.4758Z" fill="#550393"/>
</svg>