<svg width="35" height="27" viewBox="0 0 42 42" fill="none" xmlns="http://www.w3.org/2000/svg">
<path d="M33.1184 21.0829C33.1184 22.0456 32.3381 22.826 31.3754 22.826C30.4127 22.826 29.6323 22.0456 29.6323 21.0829C29.6323 20.1202 30.4127 19.3398 31.3754 19.3398C32.3381 19.3398 33.1184 20.1202 33.1184 21.0829Z" fill="#550393"/>
<path fill-rule="evenodd" clip-rule="evenodd" d="M17.3326 5.83203H22.7584C25.9618 5.832 28.499 5.83198 30.4847 6.09896C32.5282 6.3737 34.1824 6.95261 35.4869 8.25704C37.098 9.8683 37.6115 12.0262 37.798 14.8263C38.8041 15.2691 39.5639 16.2055 39.6476 17.3916C39.655 17.4965 39.6549 17.6097 39.6549 17.7144C39.6549 17.724 39.6549 17.7334 39.6549 17.7428V24.4247C39.6549 24.4341 39.6549 24.4435 39.6549 24.4531C39.6549 24.5578 39.655 24.671 39.6476 24.7759C39.5639 25.9621 38.8041 26.8984 37.798 27.3412C37.6115 30.1414 37.098 32.2993 35.4869 33.9106C34.1824 35.2149 32.5282 35.7938 30.4847 36.0686C28.499 36.3355 25.9618 36.3355 22.7584 36.3355H17.3326C14.1293 36.3355 11.592 36.3355 9.60632 36.0686C7.56273 35.7938 5.90866 35.2149 4.60421 33.9106C3.29977 32.6061 2.72087 30.9519 2.44613 28.9083C2.17915 26.9226 2.17917 24.3855 2.1792 21.1821V20.9855C2.17917 17.7821 2.17915 15.2449 2.44613 13.2592C2.72087 11.2156 3.29977 9.56149 4.60421 8.25704C5.90866 6.95261 7.56273 6.3737 9.60632 6.09896C11.592 5.83198 14.1293 5.832 17.3326 5.83203ZM35.1541 27.6202H31.7777C28.0385 27.6202 24.8389 24.7832 24.8389 21.0838C24.8389 17.3842 28.0385 14.5473 31.7777 14.5473H35.1541C34.9558 12.2091 34.5069 10.9748 33.638 10.1058C32.9004 9.36815 31.8899 8.92599 30.1364 8.69022C28.3451 8.44939 25.9837 8.44661 22.6601 8.44661H17.4309C14.1072 8.44661 11.746 8.44939 9.9547 8.69022C8.20104 8.92599 7.19067 9.36815 6.453 10.1058C5.71532 10.8435 5.27316 11.8539 5.03739 13.6075C4.79655 15.3988 4.79378 17.7601 4.79378 21.0838C4.79378 24.4074 4.79655 26.7687 5.03739 28.5601C5.27316 30.3136 5.71532 31.324 6.453 32.0617C7.19067 32.7994 8.20104 33.2416 9.9547 33.4772C11.746 33.7181 14.1072 33.7209 17.4309 33.7209H22.6601C25.9837 33.7209 28.3451 33.7181 30.1364 33.4772C31.8899 33.2416 32.9004 32.7994 33.638 32.0617C34.5069 31.1928 34.9558 29.9585 35.1541 27.6202ZM9.15142 14.1115C9.15142 13.3896 9.73672 12.8043 10.4587 12.8043H17.4309C18.1529 12.8043 18.7382 13.3896 18.7382 14.1115C18.7382 14.8335 18.1529 15.4188 17.4309 15.4188H10.4587C9.73672 15.4188 9.15142 14.8335 9.15142 14.1115ZM36.4712 17.1623C36.4358 17.1619 36.3894 17.1619 36.314 17.1619H31.7777C29.2966 17.1619 27.4535 19.0073 27.4535 21.0838C27.4535 23.1603 29.2966 25.0056 31.7777 25.0056H36.314C36.3894 25.0056 36.4358 25.0056 36.4712 25.0053C36.493 25.0049 36.5045 25.0048 36.5099 25.0044L36.5137 25.0042C36.8731 24.9825 37.0276 24.74 37.0394 24.5941C37.0394 24.5941 37.0398 24.5831 37.0399 24.5674C37.0403 24.5364 37.0403 24.4953 37.0403 24.4247V17.7428C37.0403 17.6723 37.0403 17.6311 37.0399 17.6001C37.0398 17.5844 37.0394 17.5734 37.0394 17.5734C37.0276 17.4276 36.8731 17.1851 36.5137 17.1632C36.5137 17.1632 36.5052 17.1626 36.4712 17.1623Z" fill="#550393"/>
</svg>