<svg width="27" height="27" viewBox="0 0 27 27" fill="none" xmlns="http://www.w3.org/2000/svg">
<path d="M9.64286 0H1.92857C0.863486 0 0 0.863486 0 1.92857V9.64286C0 10.7079 0.863486 11.5714 1.92857 11.5714H9.64286C10.7079 11.5714 11.5714 10.7079 11.5714 9.64286V1.92857C11.5714 0.863486 10.7079 0 9.64286 0Z" fill="#550393"/>
<path d="M9.64286 15.4287H1.92857C0.863486 15.4287 0 16.2922 0 17.3573V25.0716C0 26.1367 0.863486 27.0001 1.92857 27.0001H9.64286C10.7079 27.0001 11.5714 26.1367 11.5714 25.0716V17.3573C11.5714 16.2922 10.7079 15.4287 9.64286 15.4287Z" fill="#550393"/>
<path d="M25.0716 0H17.3573C16.2922 0 15.4287 0.863486 15.4287 1.92857V9.64286C15.4287 10.7079 16.2922 11.5714 17.3573 11.5714H25.0716C26.1367 11.5714 27.0001 10.7079 27.0001 9.64286V1.92857C27.0001 0.863486 26.1367 0 25.0716 0Z" fill="#550393"/>
<path d="M25.0716 15.4287H17.3573C16.2922 15.4287 15.4287 16.2922 15.4287 17.3573V25.0716C15.4287 26.1367 16.2922 27.0001 17.3573 27.0001H25.0716C26.1367 27.0001 27.0001 26.1367 27.0001 25.0716V17.3573C27.0001 16.2922 26.1367 15.4287 25.0716 15.4287Z" fill="#550393"/>
</svg>
