<svg width="35" height="27" viewBox="0 0 35 27" fill="none" xmlns="http://www.w3.org/2000/svg">
<path fill-rule="evenodd" clip-rule="evenodd" d="M14.3297 0.0107429H19.1287C21.9619 0.0107121 24.206 0.0106967 25.9622 0.246834C27.7697 0.489831 29.2327 1.00185 30.3865 2.15557C31.8115 3.58067 32.2657 5.48926 32.4306 7.96587C33.3205 8.35748 33.9925 9.18566 34.0665 10.2348C34.0731 10.3276 34.073 10.4276 34.073 10.5203C34.073 10.5288 34.073 10.5371 34.073 10.5454V16.4552C34.073 16.4636 34.073 16.4719 34.073 16.4804C34.073 16.573 34.0731 16.6731 34.0665 16.7659C33.9925 17.815 33.3205 18.6432 32.4306 19.0348C32.2657 21.5114 31.8115 23.42 30.3865 24.8451C29.2327 25.9988 27.7697 26.5108 25.9622 26.7539C24.206 26.9899 21.9619 26.9899 19.1287 26.9899H14.3297C11.4965 26.9899 9.25242 26.9899 7.49613 26.7539C5.68865 26.5108 4.22569 25.9988 3.07195 24.8451C1.91823 23.6914 1.40621 22.2283 1.16322 20.4209C0.927078 18.6646 0.927094 16.4206 0.927125 13.5873V13.4134C0.927094 10.5801 0.927078 8.33604 1.16322 6.57975C1.40621 4.77227 1.91823 3.30931 3.07195 2.15557C4.22569 1.00185 5.68865 0.489831 7.49613 0.246834C9.25242 0.0106967 11.4965 0.0107121 14.3297 0.0107429ZM30.0922 19.2816H27.1059C23.7987 19.2816 20.9688 16.7724 20.9688 13.5003C20.9688 10.2282 23.7987 7.71908 27.1059 7.71908H30.0922C29.9168 5.65101 29.5198 4.55932 28.7513 3.79076C28.0988 3.13831 27.2051 2.74723 25.6542 2.53871C24.0698 2.32569 21.9814 2.32324 19.0417 2.32324H14.4167C11.477 2.32324 9.38858 2.32569 7.80427 2.53871C6.25321 2.74723 5.35959 3.13831 4.70714 3.79076C4.05469 4.4432 3.66361 5.33683 3.45509 6.88789C3.24208 8.4722 3.23962 10.5607 3.23962 13.5003C3.23962 16.44 3.24208 18.5285 3.45509 20.1128C3.66361 21.6638 4.05469 22.5575 4.70714 23.2099C5.35959 23.8623 6.25321 24.2535 7.80427 24.4619C9.38858 24.6749 11.477 24.6774 14.4167 24.6774H19.0417C21.9814 24.6774 24.0698 24.6749 25.6542 24.4619C27.2051 24.2535 28.0988 23.8623 28.7513 23.2099C29.5198 22.4414 29.9168 21.3497 30.0922 19.2816ZM7.09379 7.33366C7.09379 6.69509 7.61147 6.17741 8.25004 6.17741H14.4167C15.0553 6.17741 15.573 6.69509 15.573 7.33366C15.573 7.97223 15.0553 8.48991 14.4167 8.48991H8.25004C7.61147 8.48991 7.09379 7.97223 7.09379 7.33366ZM31.2571 10.0319C31.2258 10.0316 31.1848 10.0316 31.118 10.0316H27.1059C24.9114 10.0316 23.2813 11.6637 23.2813 13.5003C23.2813 15.3369 24.9114 16.9691 27.1059 16.9691H31.118C31.1848 16.9691 31.2258 16.9691 31.2571 16.9688C31.2764 16.9685 31.2865 16.9683 31.2913 16.968L31.2947 16.9678C31.6126 16.9486 31.7492 16.7341 31.7597 16.6051C31.7597 16.6051 31.76 16.5954 31.7601 16.5815C31.7605 16.5541 31.7605 16.5177 31.7605 16.4552V10.5454C31.7605 10.483 31.7605 10.4466 31.7601 10.4192C31.76 10.4052 31.7597 10.3955 31.7597 10.3955C31.7492 10.2666 31.6126 10.0521 31.2947 10.0327C31.2947 10.0327 31.2872 10.0322 31.2571 10.0319Z" fill="#BABFBF"/>
</svg>
