<svg width="44" height="43" viewBox="0 0 44 43" fill="none" xmlns="http://www.w3.org/2000/svg">
<ellipse cx="22" cy="21.5" rx="22" ry="21.5" fill="#D3D3D3"/>
<path d="M19.2925 32C20.1335 32 20.8576 31.5795 21.3482 30.832L31.7898 14.5039C32.0934 14.0133 32.3738 13.4527 32.3738 12.9155C32.3738 11.7709 31.3459 11 30.2481 11C29.5473 11 28.9166 11.3737 28.426 12.168L19.1991 26.9778L14.8543 21.4416C14.2937 20.7175 13.733 20.4605 13.0323 20.4605C11.8877 20.4605 11 21.3715 11 22.5395C11 23.1001 11.2102 23.614 11.6073 24.1046L17.1201 30.832C17.7508 31.6496 18.4283 32 19.2925 32Z" fill="#808080"/>
</svg>
