<svg width="44" height="43" viewBox="0 0 44 43" fill="none" xmlns="http://www.w3.org/2000/svg">
<ellipse cx="22" cy="21.5" rx="22" ry="21.5" fill="#FACBCB"/>
<path d="M14.9288 30.9595C15.486 30.9595 15.9575 30.7666 16.3219 30.3809L21.9798 24.723L27.6591 30.3809C28.0234 30.7452 28.4735 30.9595 29.0521 30.9595C30.1237 30.9595 30.981 30.1023 30.981 29.0093C30.981 28.4949 30.7666 28.0234 30.4023 27.6591L24.723 21.9798L30.4237 16.279C30.8095 15.8932 31.0024 15.4432 31.0024 14.9288C31.0024 13.8573 30.1451 13 29.0736 13C28.5378 13 28.1091 13.1929 27.7019 13.6001L21.9798 19.2794L16.3004 13.6215C15.9361 13.2357 15.486 13.0429 14.9288 13.0429C13.8573 13.0429 13 13.8787 13 14.9503C13 15.4646 13.2143 15.9361 13.5786 16.3004L19.258 21.9798L13.5786 27.6805C13.2143 28.0234 13 28.4949 13 29.0093C13 30.1023 13.8573 30.9595 14.9288 30.9595Z" fill="#BB7F7F"/>
</svg>
