<svg width="119" height="190" viewBox="0 0 119 190" fill="none" xmlns="http://www.w3.org/2000/svg">
<rect x="-11" width="25" height="25" fill="#FF7D65"/>
<rect x="-11" y="33" width="25" height="25" fill="#FF7D65"/>
<rect x="-11" y="66" width="25" height="25" fill="#FF7D65"/>
<rect x="-11" y="99" width="25" height="25" fill="#FF7D65"/>
<rect x="-11" y="132" width="25" height="25" fill="#FF7D65"/>
<rect x="-11" y="165" width="25" height="25" fill="#FF7D65"/>
<rect x="24" width="25" height="25" fill="#FF7D65"/>
<rect x="24" y="33" width="25" height="25" fill="#FF7D65"/>
<rect x="24" y="66" width="25" height="25" fill="#FF7D65"/>
<rect x="24" y="99" width="25" height="25" fill="#FF7D65"/>
<rect x="24" y="132" width="25" height="25" fill="#FF7D65"/>
<rect x="24" y="165" width="25" height="25" fill="#FF7D65"/>
<rect x="59" width="25" height="25" fill="#FF7D65"/>
<rect x="59" y="33" width="25" height="25" fill="#FF7D65"/>
<rect x="59" y="66" width="25" height="25" fill="#FF7D65"/>
<rect x="59" y="99" width="25" height="25" fill="#FF7D65"/>
<rect x="59" y="132" width="25" height="25" fill="#FF7D65"/>
<rect x="59" y="165" width="25" height="25" fill="#FF7D65"/>
<rect x="94" width="25" height="25" fill="#FF7D65"/>
<rect x="94" y="33" width="25" height="25" fill="#FF7D65"/>
<rect x="94" y="66" width="25" height="25" fill="#FF7D65"/>
<rect x="94" y="99" width="25" height="25" fill="#FF7D65"/>
<rect x="94" y="132" width="25" height="25" fill="#FF7D65"/>
<rect x="94" y="165" width="25" height="25" fill="#FF7D65"/>
</svg>
