<svg width="27" height="27" viewBox="0 0 22 22" fill="none" xmlns="http://www.w3.org/2000/svg">
<g clip-path="url(#clip0_56_9866)">
<path d="M7.85714 0H1.57143C0.703581 0 0 0.703581 0 1.57143V7.85714C0 8.72499 0.703581 9.42857 1.57143 9.42857H7.85714C8.72499 9.42857 9.42857 8.72499 9.42857 7.85714V1.57143C9.42857 0.703581 8.72499 0 7.85714 0Z" fill="#BABFBF"/>
<path d="M7.85714 12.5718H1.57143C0.703581 12.5718 0 13.2754 0 14.1432V20.4289C0 21.2968 0.703581 22.0003 1.57143 22.0003H7.85714C8.72499 22.0003 9.42857 21.2968 9.42857 20.4289V14.1432C9.42857 13.2754 8.72499 12.5718 7.85714 12.5718Z" fill="#BABFBF"/>
<path d="M20.4287 0H14.143C13.2751 0 12.5715 0.703581 12.5715 1.57143V7.85714C12.5715 8.72499 13.2751 9.42857 14.143 9.42857H20.4287C21.2965 9.42857 22.0001 8.72499 22.0001 7.85714V1.57143C22.0001 0.703581 21.2965 0 20.4287 0Z" fill="#BABFBF"/>
<path d="M20.4287 12.5718H14.143C13.2751 12.5718 12.5715 13.2754 12.5715 14.1432V20.4289C12.5715 21.2968 13.2751 22.0003 14.143 22.0003H20.4287C21.2965 22.0003 22.0001 21.2968 22.0001 20.4289V14.1432C22.0001 13.2754 21.2965 12.5718 20.4287 12.5718Z" fill="#BABFBF"/>
</g>
<defs>
<clipPath id="clip0_56_9866">
<rect width="22" height="22" fill="white"/>
</clipPath>
</defs>
</svg>
