
<svg width="27" height="27" viewBox="0 0 27 27" fill="none" xmlns="http://www.w3.org/2000/svg">
<path fill-rule="evenodd" clip-rule="evenodd" d="M13.4997 13.4997C10.5075 13.4997 8.07412 11.0778 8.07412 8.0998C8.07412 5.12177 10.5075 2.69992 13.4997 2.69992C16.4919 2.69992 18.9253 5.12177 18.9253 8.0998C18.9253 11.0778 16.4919 13.4997 13.4997 13.4997ZM18.5971 14.4082C20.7497 12.6843 22.0043 9.89654 21.5432 6.84426C21.0074 3.30328 18.0477 0.469758 14.475 0.0566675C9.54446 -0.51437 5.36133 3.30606 5.36133 8.0998C5.36133 10.6512 6.54952 12.9246 8.40236 14.4082C3.85029 16.1105 0.527114 20.1078 0.00625585 25.5023C-0.0697016 26.3001 0.555604 26.9994 1.3613 26.9994C2.05171 26.9994 2.64039 26.481 2.70143 25.7966C3.24534 19.7717 7.88015 16.1996 13.4997 16.1996C19.1193 16.1996 23.7541 19.7717 24.298 25.7966C24.359 26.481 24.9477 26.9994 25.6381 26.9994C26.4438 26.9994 27.0691 26.3001 26.9932 25.5023C26.4723 20.1078 23.1491 16.1105 18.5971 14.4082Z" fill="#BABFBF"/>
</svg>